<?xml version="1.0" standalone="no"?>
<!DOCTYPE svg PUBLIC "-//W3C//DTD SVG 20010904//EN"
 "http://www.w3.org/TR/2001/REC-SVG-20010904/DTD/svg10.dtd">
<svg version="1.0" xmlns="http://www.w3.org/2000/svg"
 width="153.000000pt" height="148.000000pt" viewBox="0 0 153.000000 148.000000"
 preserveAspectRatio="xMidYMid meet">

<g transform="translate(0.000000,148.000000) scale(0.100000,-0.100000)"
fill="#000000" stroke="none">
<path d="M480 1310 l0 -90 70 0 c68 0 70 1 70 25 0 23 -4 25 -40 25 -39 0 -40
1 -40 35 0 34 1 35 40 35 38 0 40 2 40 30 l0 30 -70 0 -70 0 0 -90z"/>
<path d="M690 1368 c0 -22 10 -42 32 -65 l32 -33 -32 0 c-27 0 -32 -4 -32 -25
0 -24 2 -25 75 -25 75 0 75 0 75 27 0 17 -12 39 -32 60 l-32 33 32 0 c29 0 32
3 32 30 l0 30 -75 0 -75 0 0 -32z"/>
<path d="M910 1367 c0 -23 8 -41 25 -57 14 -13 25 -27 25 -32 0 -4 -11 -8 -25
-8 -20 0 -25 -5 -25 -25 0 -24 2 -25 70 -25 l70 0 0 34 c0 25 -7 40 -25 54
-32 26 -32 32 3 32 26 0 28 3 24 30 l-4 30 -69 0 -69 0 0 -33z"/>
<path d="M280 1113 c0 -38 89 -975 92 -979 5 -5 380 -107 393 -107 15 1 387
102 392 107 4 4 92 937 93 979 0 16 -30 17 -485 17 -455 0 -485 -1 -485 -17z
m880 -71 c0 -5 -6 -78 -14 -163 -8 -85 -20 -217 -26 -294 -7 -77 -18 -196 -24
-264 l-11 -125 -155 -41 -155 -42 -3 57 -3 58 -129 38 c-115 33 -130 40 -130
59 0 12 -3 57 -7 99 l-6 77 64 -3 64 -3 3 -47 c3 -51 6 -53 110 -74 l32 -6 0
96 0 96 -139 0 -140 0 -6 44 c-12 75 -11 76 135 138 l135 58 -142 0 -141 0 -6
28 c-2 15 -7 44 -11 65 l-6 37 161 0 160 0 0 60 0 60 195 0 c107 0 195 -4 195
-8z"/>
<path d="M902 540 c0 -14 2 -19 5 -12 2 6 2 18 0 25 -3 6 -5 1 -5 -13z"/>
<path d="M1021 324 c0 -11 3 -14 6 -6 3 7 2 16 -1 19 -3 4 -6 -2 -5 -13z"/>
</g>
</svg>
