<?xml version="1.0" standalone="no"?>
<!DOCTYPE svg PUBLIC "-//W3C//DTD SVG 20010904//EN"
 "http://www.w3.org/TR/2001/REC-SVG-20010904/DTD/svg10.dtd">
<svg version="1.0" xmlns="http://www.w3.org/2000/svg"
 width="160.000000pt" height="148.000000pt" viewBox="0 0 160.000000 148.000000"
 preserveAspectRatio="xMidYMid meet">

<g transform="translate(0.000000,148.000000) scale(0.100000,-0.100000)"
fill="#000000" stroke="none">
<path d="M645 1420 l-59 -60 87 -88 c81 -82 89 -87 130 -88 76 -2 132 -59 125
-130 -2 -31 5 -42 82 -120 72 -72 89 -84 110 -80 39 7 106 -27 125 -65 26 -49
15 -116 -24 -151 -41 -37 -76 -44 -125 -27 -55 19 -89 69 -84 127 3 41 1 45
-74 119 l-78 78 0 -217 c0 -182 2 -217 15 -222 8 -3 24 -20 35 -38 72 -118
-81 -248 -184 -157 -58 51 -60 134 -5 186 l29 28 0 217 c0 207 -1 218 -20 228
-30 16 -52 67 -48 111 3 37 0 43 -84 126 l-88 88 -241 -240 c-132 -132 -247
-253 -255 -268 -31 -58 -22 -69 340 -433 l342 -344 105 0 104 0 337 338 c185
185 342 350 348 365 5 16 7 40 4 55 -4 18 -127 148 -353 375 l-346 347 -95 0
-96 0 -59 -60z"/>
</g>
</svg>
