<?xml version="1.0" standalone="no"?>
<!DOCTYPE svg PUBLIC "-//W3C//DTD SVG 20010904//EN"
 "http://www.w3.org/TR/2001/REC-SVG-20010904/DTD/svg10.dtd">
<svg version="1.0" xmlns="http://www.w3.org/2000/svg"
 width="204.000000pt" height="192.000000pt" viewBox="0 0 204.000000 192.000000"
 preserveAspectRatio="xMidYMid meet">

<g transform="translate(0.000000,192.000000) scale(0.100000,-0.100000)"
fill="#000000" stroke="none">
<path d="M706 1899 c-227 -79 -411 -218 -531 -403 -73 -112 -108 -190 -141
-311 -24 -88 -27 -118 -27 -255 0 -136 3 -167 27 -255 72 -273 269 -521 512
-644 54 -27 72 -31 143 -31 l81 0 0 100 0 99 -62 -5 c-80 -8 -172 9 -218 40
-26 17 -48 46 -74 100 -28 56 -53 89 -92 123 -58 50 -66 68 -34 76 54 14 136
-34 191 -113 64 -91 134 -117 244 -89 38 10 44 15 49 44 4 18 18 49 31 69 13
20 23 36 21 36 -29 0 -167 34 -203 50 -162 71 -239 198 -250 410 -5 91 -2 114
17 169 12 35 35 84 51 107 28 41 29 46 18 89 -13 50 -7 139 12 193 9 25 16 32
38 32 40 0 142 -37 203 -73 53 -32 53 -32 108 -19 78 20 318 20 396 1 59 -15
61 -15 94 8 52 35 174 83 213 83 33 0 35 -2 51 -58 18 -67 20 -121 5 -175 -9
-34 -7 -41 20 -80 16 -24 39 -73 51 -108 19 -55 22 -78 17 -169 -10 -203 -81
-327 -232 -403 -31 -16 -119 -40 -188 -52 -36 -6 -38 -8 -24 -23 38 -44 42
-66 47 -262 l5 -195 78 -3 c71 -3 84 0 140 29 244 123 441 370 513 644 24 88
27 119 27 255 0 137 -3 167 -27 255 -85 316 -304 565 -607 691 l-94 39 -270 2
c-251 3 -274 1 -329 -18z"/>
</g>
</svg>
