<?xml version="1.0" standalone="no"?>
<!DOCTYPE svg PUBLIC "-//W3C//DTD SVG 20010904//EN"
 "http://www.w3.org/TR/2001/REC-SVG-20010904/DTD/svg10.dtd">
<svg version="1.0" xmlns="http://www.w3.org/2000/svg"
 width="166.000000pt" height="148.000000pt" viewBox="0 0 166.000000 148.000000"
 preserveAspectRatio="xMidYMid meet">

<g transform="translate(0.000000,148.000000) scale(0.100000,-0.100000)"
fill="#000000" stroke="none">
<path d="M110 1445 c0 -19 4 -78 10 -132 5 -54 16 -177 25 -273 9 -96 31 -350
51 -565 22 -254 39 -394 47 -402 7 -7 61 -26 120 -43 l107 -30 359 0 358 0
109 31 c60 17 114 36 121 42 8 8 25 152 48 407 46 516 64 714 75 833 6 54 10
113 10 132 l0 35 -720 0 -720 0 0 -35z m1174 -194 c3 -4 3 -45 -1 -90 l-6 -81
-343 0 c-248 0 -345 -3 -350 -12 -10 -16 -5 -138 7 -160 9 -17 30 -18 328 -18
243 0 321 -3 328 -12 7 -9 6 -60 -3 -148 -7 -74 -18 -195 -25 -268 -10 -120
-14 -135 -33 -143 -26 -12 -343 -99 -359 -99 -31 0 -361 100 -368 111 -10 17
-22 124 -23 209 l-1 65 80 3 c92 3 105 -5 105 -73 0 -23 6 -48 13 -57 6 -9 54
-28 104 -42 l93 -24 95 25 c59 16 99 33 105 43 5 9 10 61 12 116 l3 99 -307 5
c-168 3 -310 9 -314 13 -10 9 -56 516 -49 535 3 9 104 12 454 12 247 0 452 -4
455 -9z"/>
</g>
</svg>
