<?xml version="1.0" standalone="no"?>
<!DOCTYPE svg PUBLIC "-//W3C//DTD SVG 20010904//EN"
 "http://www.w3.org/TR/2001/REC-SVG-20010904/DTD/svg10.dtd">
<svg version="1.0" xmlns="http://www.w3.org/2000/svg"
 width="200.000000pt" height="200.000000pt" viewBox="0 0 200.000000 200.000000"
 preserveAspectRatio="xMidYMid meet">

<g transform="translate(0.000000,200.000000) scale(0.100000,-0.100000)"
fill="#000000" stroke="none">
<path d="M709 1987 c-9 -7 -19 -23 -23 -35 -7 -22 -9 -22 -25 -8 -44 40 -74 8
-75 -79 -1 -36 -5 -65 -10 -65 -5 0 -2 -8 8 -18 15 -17 15 -22 1 -49 -10 -21
-13 -38 -7 -54 9 -23 9 -23 16 -3 7 24 56 73 56 57 0 -6 3 -18 6 -27 4 -10 1
-16 -9 -16 -9 0 -19 -5 -23 -12 -5 -8 2 -9 26 -4 41 8 49 14 31 25 -9 6 -3 10
17 13 17 2 29 1 26 -4 -3 -4 11 -8 30 -8 20 0 36 -4 36 -9 0 -13 -36 -24 -57
-17 -24 7 -57 -19 -50 -39 4 -8 13 -15 22 -15 8 0 15 -4 15 -10 0 -12 -37 -13
-44 -1 -9 13 -58 10 -88 -5 -15 -8 -34 -28 -43 -44 -15 -28 -21 -124 -9 -153
7 -19 40 -11 58 14 12 18 90 79 101 79 14 0 2 -37 -15 -48 -11 -7 -20 -23 -20
-36 0 -30 -11 -38 -70 -51 -40 -9 -45 -13 -53 -48 -7 -28 -6 -46 3 -62 7 -13
10 -31 7 -39 -4 -9 -2 -16 2 -16 5 0 -5 -15 -22 -33 -18 -18 -35 -31 -39 -29
-4 2 -7 -66 -5 -150 l2 -153 -62 -63 c-49 -51 -66 -63 -82 -57 -29 9 -26 33 4
45 21 8 25 16 26 52 2 62 0 72 -19 83 -9 6 -28 22 -43 38 -35 35 -74 35 -110
1 l-27 -26 -21 23 c-11 13 -21 26 -21 29 0 4 -19 14 -41 23 -39 15 -43 15 -63
-1 -22 -18 -34 -70 -19 -81 4 -3 13 -15 19 -26 6 -11 19 -22 29 -23 14 -3 16
1 11 22 -8 32 -6 32 67 4 39 -16 59 -30 63 -44 3 -12 18 -24 37 -30 22 -6 32
-15 32 -29 0 -35 -33 -29 -71 13 -25 28 -41 38 -55 35 -18 -5 -19 -7 -4 -23
30 -33 15 -62 -40 -82 -27 -10 -60 -18 -72 -18 l-23 0 0 -350 0 -350 219 0
218 0 7 52 c9 65 21 88 47 88 11 0 38 17 62 39 56 51 81 58 104 31 10 -12 40
-32 66 -45 l48 -24 15 34 c18 45 18 48 -6 40 -42 -13 -154 47 -182 98 -7 12
-15 42 -18 67 -5 41 -7 45 -30 42 -14 -2 -37 -10 -52 -17 -16 -7 -28 -9 -28
-4 0 6 18 65 40 132 34 106 106 254 117 243 2 -2 -3 -28 -11 -57 -15 -52 -16
-152 -2 -209 4 -14 11 -47 16 -75 11 -54 55 -129 71 -120 5 4 30 -12 56 -34
l46 -41 23 25 c13 14 31 25 41 25 10 0 42 12 71 27 45 22 65 43 114 113 61 87
116 150 129 150 10 0 5 -24 -14 -82 -9 -24 -18 -61 -22 -81 -5 -27 -12 -37
-21 -33 -8 3 -20 -6 -28 -22 -19 -36 -65 -78 -99 -91 -15 -6 -53 -8 -85 -5
-31 3 -62 1 -67 -3 -6 -4 -18 -33 -27 -63 -10 -30 -27 -83 -38 -117 -24 -75
-24 -80 -5 -80 8 0 15 4 15 9 0 4 15 17 33 28 20 13 26 20 15 20 -9 0 -20 4
-23 10 -3 6 1 7 9 4 14 -5 17 -1 16 21 -1 12 57 64 78 70 23 7 24 6 18 -52 -4
-43 -3 -50 3 -25 11 44 17 49 68 60 62 14 70 -1 38 -73 -14 -32 -25 -61 -25
-66 0 -5 216 -9 490 -9 l490 0 0 329 0 328 -102 7 c-148 10 -158 16 -58 37 47
10 102 18 123 18 l37 1 0 305 c0 197 -4 305 -10 305 -5 0 -10 15 -10 34 0 39
-26 69 -36 42 -4 -9 -4 -30 0 -46 12 -61 -5 -77 -142 -142 -70 -33 -172 -79
-228 -103 -55 -24 -118 -53 -140 -64 -36 -20 -74 -28 -74 -16 0 3 14 34 32 68
23 46 32 76 32 116 1 50 -1 55 -38 87 -22 19 -33 34 -25 34 15 0 26 35 49 150
15 79 -7 188 -49 240 -17 21 -31 41 -31 44 0 24 -61 85 -113 114 -34 19 -70
43 -80 54 -10 10 -31 21 -47 25 -16 3 -31 11 -34 19 -7 18 -322 19 -347 1z
m81 -257 c-8 -5 -24 -9 -35 -9 l-20 0 20 9 c11 5 27 9 35 9 13 1 13 0 0 -9z
m73 -72 c20 -12 15 -14 -43 -19 -36 -3 -67 -4 -69 -2 -2 1 2 9 9 18 15 18 73
20 103 3z m22 -299 c28 -4 73 -8 102 -8 28 -1 58 -4 67 -7 27 -10 7 -24 -35
-24 -43 0 -79 -14 -92 -36 -4 -8 -18 -14 -30 -14 -12 0 -39 -2 -59 -6 -33 -5
-38 -3 -52 25 -15 28 -15 34 -1 62 12 23 21 29 33 23 9 -4 40 -10 67 -15z
m-165 -29 c0 -5 -4 -10 -9 -10 -6 0 -13 5 -16 10 -3 6 1 10 9 10 9 0 16 -4 16
-10z m78 -122 c-2 -6 -10 -14 -16 -16 -7 -2 -10 2 -6 12 7 18 28 22 22 4z
m-533 -534 c11 -1 28 -3 37 -3 15 -1 14 -5 -5 -39 -56 -95 -70 -101 -80 -30
-4 24 -10 54 -13 67 -6 21 -5 23 17 15 13 -4 33 -8 44 -10z m205 -378 c0 -30
-40 -90 -64 -94 -18 -4 -18 -3 1 24 11 16 25 44 32 62 16 38 31 42 31 8z"/>
<path d="M455 1151 c-3 -5 -1 -12 5 -16 5 -3 10 1 10 9 0 18 -6 21 -15 7z"/>
</g>
</svg>
