<?xml version="1.0" standalone="no"?>
<!DOCTYPE svg PUBLIC "-//W3C//DTD SVG 20010904//EN"
 "http://www.w3.org/TR/2001/REC-SVG-20010904/DTD/svg10.dtd">
<svg version="1.0" xmlns="http://www.w3.org/2000/svg"
 width="204.000000pt" height="192.000000pt" viewBox="0 0 204.000000 192.000000"
 preserveAspectRatio="xMidYMid meet">

<g transform="translate(0.000000,192.000000) scale(0.100000,-0.100000)"
fill="#000000" stroke="none">
<path d="M610 1709 c-105 -21 -225 -105 -285 -200 -63 -99 -65 -113 -65 -554
0 -372 1 -406 19 -458 51 -148 183 -263 339 -296 71 -15 733 -15 804 0 122 25
224 97 293 204 64 101 65 107 65 550 0 369 -2 406 -19 457 -52 152 -186 269
-340 298 -66 12 -748 11 -811 -1z m868 -150 c83 -41 137 -104 163 -189 19 -63
20 -89 17 -436 l-3 -369 -33 -67 c-33 -68 -80 -116 -152 -154 -33 -18 -63 -19
-450 -19 -387 0 -417 1 -450 19 -72 38 -119 86 -152 154 l-33 67 -3 369 c-3
347 -2 373 17 436 26 85 80 148 163 189 l61 31 397 0 397 0 61 -31z"/>
<path d="M1366 1429 c-54 -64 -17 -148 66 -149 83 0 125 94 69 154 -37 39
-100 37 -135 -5z"/>
<path d="M920 1291 c-90 -29 -170 -100 -217 -191 -24 -48 -28 -66 -27 -145 0
-79 3 -97 27 -143 39 -75 100 -137 166 -169 49 -25 67 -28 151 -28 84 0 102 3
151 28 66 32 127 94 166 169 24 46 27 64 27 143 1 79 -3 97 -27 145 -36 70
-98 134 -162 168 -41 21 -66 26 -140 29 -49 1 -101 -1 -115 -6z m201 -139 c76
-40 112 -94 117 -176 5 -80 -9 -123 -55 -171 -96 -99 -230 -99 -326 0 -46 48
-60 91 -55 171 3 50 10 72 34 106 39 55 119 98 184 98 33 0 64 -9 101 -28z"/>
</g>
</svg>
