<?xml version="1.0" standalone="no"?>
<!DOCTYPE svg PUBLIC "-//W3C//DTD SVG 20010904//EN"
 "http://www.w3.org/TR/2001/REC-SVG-20010904/DTD/svg10.dtd">
<svg version="1.0" xmlns="http://www.w3.org/2000/svg"
 width="156.000000pt" height="148.000000pt" viewBox="0 0 156.000000 148.000000"
 preserveAspectRatio="xMidYMid meet">

<g transform="translate(0.000000,148.000000) scale(0.100000,-0.100000)"
fill="#000000" stroke="none">
<path d="M1204 660 c111 -34 88 -171 -42 -252 -59 -36 -25 -31 49 8 127 67
163 152 95 220 -30 30 -40 34 -82 33 -44 -1 -46 -2 -20 -9z"/>
<path d="M452 635 c-67 -16 -93 -38 -72 -60 23 -22 122 -44 250 -56 145 -13
309 -1 439 33 37 10 41 13 27 23 -12 9 -31 9 -83 0 -202 -37 -553 -19 -553 29
0 8 17 21 38 29 45 19 26 20 -46 2z"/>
<path d="M471 456 c-19 -7 -36 -17 -39 -24 -6 -18 44 -44 111 -58 80 -17 333
-17 413 0 80 17 91 24 65 43 -18 12 -30 12 -79 2 -81 -18 -326 -16 -377 3 -26
10 -39 21 -39 32 2 19 -8 19 -55 2z"/>
<path d="M522 274 c-32 -22 -28 -33 26 -57 42 -20 63 -22 202 -21 114 0 166 4
195 16 l40 15 -25 14 c-19 10 -60 13 -167 10 -137 -3 -213 8 -213 30 0 14 -33
11 -58 -7z"/>
<path d="M310 219 c-69 -24 -99 -52 -84 -77 41 -67 379 -116 642 -93 251 22
388 69 366 125 -5 14 -10 13 -35 -8 -33 -28 -95 -50 -189 -67 -92 -17 -408
-17 -500 0 -177 32 -229 78 -142 125 38 21 8 18 -58 -5z"/>
<path d="M1275 93 c-33 -25 -100 -53 -177 -73 -72 -19 -73 -19 -27 -19 59 -1
157 32 200 68 35 30 39 51 4 24z"/>
</g>
</svg>
