<?xml version="1.0" standalone="no"?>
<!DOCTYPE svg PUBLIC "-//W3C//DTD SVG 20010904//EN"
 "http://www.w3.org/TR/2001/REC-SVG-20010904/DTD/svg10.dtd">
<svg version="1.0" xmlns="http://www.w3.org/2000/svg"
 width="197.000000pt" height="148.000000pt" viewBox="0 0 197.000000 148.000000"
 preserveAspectRatio="xMidYMid meet">

<g transform="translate(0.000000,148.000000) scale(0.100000,-0.100000)"
fill="#000000" stroke="none">
<path d="M563 1316 c-59 -19 -99 -50 -130 -104 l-28 -47 0 -425 0 -425 28 -47
c32 -55 71 -85 134 -104 64 -20 765 -20 839 -1 66 17 118 58 146 115 23 47 23
49 23 462 0 413 0 415 -23 462 -28 57 -80 98 -146 115 -71 18 -783 17 -843 -1z
m215 -252 c65 -74 -29 -175 -112 -120 -50 32 -46 104 7 137 39 24 73 18 105
-17z m434 -204 c50 -14 97 -55 119 -105 16 -34 19 -67 19 -207 l0 -168 -75 0
-75 0 0 150 c0 147 -1 152 -25 175 -35 36 -88 34 -126 -4 l-29 -29 0 -146 0
-146 -75 0 -75 0 0 240 0 241 68 -3 c65 -3 67 -4 70 -30 l3 -28 28 21 c29 21
95 48 121 49 8 0 32 -5 52 -10z m-422 -240 l0 -240 -75 0 -75 0 0 240 0 240
75 0 75 0 0 -240z"/>
</g>
</svg>
