<?xml version="1.0" standalone="no"?>
<!DOCTYPE svg PUBLIC "-//W3C//DTD SVG 20010904//EN"
 "http://www.w3.org/TR/2001/REC-SVG-20010904/DTD/svg10.dtd">
<svg version="1.0" xmlns="http://www.w3.org/2000/svg"
 width="204.000000pt" height="192.000000pt" viewBox="0 0 204.000000 192.000000"
 preserveAspectRatio="xMidYMid meet">

<g transform="translate(0.000000,192.000000) scale(0.100000,-0.100000)"
fill="#000000" stroke="none">
<path d="M865 1896 c-208 -41 -359 -121 -505 -266 -112 -112 -177 -215 -226
-357 -45 -131 -58 -224 -51 -358 7 -123 29 -216 84 -344 l36 -84 -18 -71 c-18
-72 -96 -353 -109 -392 -6 -20 3 -18 176 26 101 26 213 56 249 66 l67 18 72
-33 c170 -76 387 -99 570 -61 185 38 326 111 460 237 98 92 157 172 210 285
70 150 85 221 85 403 0 137 -3 171 -23 240 -80 275 -254 485 -509 614 -147 74
-405 109 -568 77z m341 -166 c277 -66 483 -258 576 -536 20 -61 23 -88 23
-229 0 -142 -3 -168 -24 -230 -69 -202 -192 -355 -366 -454 -113 -65 -214 -93
-360 -98 -147 -6 -257 16 -382 78 l-83 41 -140 -38 c-77 -20 -142 -35 -145
-33 -4 5 62 270 70 277 2 2 -8 22 -22 45 -75 119 -113 257 -113 413 0 274 137
521 371 667 175 109 396 145 595 97z"/>
<path d="M654 1390 c-27 -11 -68 -63 -89 -113 -20 -48 -19 -156 1 -209 30 -78
127 -212 219 -304 153 -153 335 -246 485 -248 66 -1 82 3 129 29 72 40 94 71
99 143 l4 58 -112 52 c-61 29 -115 52 -120 52 -5 0 -30 -27 -57 -59 -26 -33
-54 -62 -61 -65 -23 -10 -171 74 -233 131 -56 52 -129 150 -129 173 0 6 19 37
41 70 l42 58 -37 85 c-20 46 -36 89 -36 94 0 6 -9 22 -21 37 -16 21 -29 26
-62 25 -23 0 -52 -4 -63 -9z"/>
</g>
</svg>
