<?xml version="1.0" standalone="no"?>
<!DOCTYPE svg PUBLIC "-//W3C//DTD SVG 20010904//EN"
 "http://www.w3.org/TR/2001/REC-SVG-20010904/DTD/svg10.dtd">
<svg version="1.0" xmlns="http://www.w3.org/2000/svg"
 width="225.000000pt" height="225.000000pt" viewBox="0 0 225.000000 225.000000"
 preserveAspectRatio="xMidYMid meet">

<g transform="translate(0.000000,225.000000) scale(0.100000,-0.100000)"
fill="#000000" stroke="none">
<path d="M1886 1808 c3 -7 17 -22 32 -32 27 -19 27 -19 -2 12 -32 35 -38 38
-30 20z"/>
<path d="M1350 1800 c-9 -6 -10 -10 -3 -10 6 0 15 5 18 10 8 12 4 12 -15 0z"/>
<path d="M1160 1733 c0 -1 8 -7 18 -12 13 -7 19 -6 19 2 0 7 -9 13 -19 13 -10
0 -18 -1 -18 -3z"/>
<path d="M1028 1668 c-139 -97 -270 -249 -344 -400 l-27 -57 43 -145 c25 -80
47 -140 51 -133 4 6 53 143 109 302 57 160 107 294 111 299 6 7 269 10 276 2
2 -1 52 -141 112 -311 104 -296 109 -307 119 -274 6 19 27 86 47 150 l36 116
-21 36 c-12 20 -19 44 -16 54 3 10 1 25 -5 33 -8 12 -9 10 -4 -7 10 -36 -1
-27 -31 25 -15 26 -32 52 -38 59 -6 6 -22 26 -36 45 -40 54 -182 188 -227 215
-24 14 -43 27 -43 30 0 2 6 1 13 -3 6 -4 9 -3 5 1 -21 23 -60 11 -130 -37z"/>
<path d="M1930 1716 c0 -2 8 -10 18 -17 15 -13 16 -12 3 4 -13 16 -21 21 -21
13z"/>
<path d="M1970 1711 c0 -6 4 -13 10 -16 6 -3 7 1 4 9 -7 18 -14 21 -14 7z"/>
<path d="M1991 1564 c0 -11 3 -14 6 -6 3 7 2 16 -1 19 -3 4 -6 -2 -5 -13z"/>
<path d="M2046 1563 c-6 -14 -5 -15 5 -6 7 7 10 15 7 18 -3 3 -9 -2 -12 -12z"/>
<path d="M1616 1517 c3 -10 9 -15 12 -12 3 3 0 11 -7 18 -10 9 -11 8 -5 -6z"/>
<path d="M1415 1480 c3 -5 8 -10 11 -10 2 0 4 5 4 10 0 6 -5 10 -11 10 -5 0
-7 -4 -4 -10z"/>
<path d="M2085 1469 c-4 -6 -5 -12 -2 -15 2 -3 7 2 10 11 7 17 1 20 -8 4z"/>
<path d="M1940 1453 c0 -11 -5 -24 -12 -31 -6 -6 -9 -14 -7 -17 3 -2 13 9 22
25 11 18 14 31 7 35 -5 3 -10 -2 -10 -12z"/>
<path d="M2108 1418 c0 -7 -3 -24 -4 -38 -5 -42 -17 -85 -24 -90 -4 -3 -24
-39 -46 -80 -21 -41 -41 -77 -44 -80 -3 -3 -17 -21 -30 -40 -12 -19 -73 -85
-135 -146 -106 -105 -113 -115 -140 -190 -16 -43 -38 -106 -50 -139 l-22 -60
-135 -3 -135 -3 -114 326 c-63 178 -116 325 -119 325 -3 0 -55 -145 -115 -322
l-110 -323 -141 -3 -142 -3 -29 83 c-17 46 -39 108 -49 138 -12 34 -32 65 -54
85 -177 156 -280 289 -341 439 -19 47 -37 86 -40 86 -17 0 -34 -146 -33 -280
1 -122 6 -161 28 -244 47 -179 141 -343 272 -478 76 -78 188 -163 203 -154 5
4 13 1 17 -5 4 -8 3 -9 -4 -5 -7 4 -12 5 -12 2 0 -9 129 -71 195 -94 213 -75
453 -80 655 -15 105 34 211 84 203 96 -3 6 -1 7 6 3 17 -11 139 74 218 152 87
85 157 177 147 193 -4 7 -3 9 4 5 27 -16 121 202 153 359 17 82 20 124 16 235
-4 129 -22 240 -38 240 -4 0 -5 9 -2 20 3 11 3 20 -1 20 -3 0 -7 -6 -8 -12z"/>
<path d="M1586 1357 c3 -10 9 -15 12 -12 3 3 0 11 -7 18 -10 9 -11 8 -5 -6z"/>
<path d="M1901 1354 c0 -11 3 -14 6 -6 3 7 2 16 -1 19 -3 4 -6 -2 -5 -13z"/>
<path d="M1881 1255 c1 -19 18 -51 18 -35 0 8 -4 22 -9 30 -5 8 -9 11 -9 5z"/>
</g>
</svg>
